<svg width="64" height="64" viewBox="0 0 64 64" fill="none" xmlns="http://www.w3.org/2000/svg">
<circle cx="32" cy="32" r="32" fill="white"/>
<path d="M38.4307 46.0566C38.1494 45.4941 37.9209 44.4922 37.7451 43.0508C35.4775 45.4062 32.7705 46.584 29.624 46.584C26.8115 46.584 24.5 45.793 22.6895 44.2109C20.8965 42.6113 20 40.5898 20 38.1465C20 35.1758 21.125 32.873 23.375 31.2383C25.6426 29.5859 28.8242 28.7598 32.9199 28.7598H37.666V26.5186C37.666 24.8135 37.1562 23.46 36.1367 22.458C35.1172 21.4385 33.6143 20.9287 31.6279 20.9287C29.8877 20.9287 28.4287 21.3682 27.251 22.2471C26.0732 23.126 25.4844 24.1895 25.4844 25.4375H20.5801C20.5801 24.0137 21.0811 22.6426 22.083 21.3242C23.1025 19.9883 24.4736 18.9336 26.1963 18.1602C27.9365 17.3867 29.8438 17 31.918 17C35.2051 17 37.7803 17.8262 39.6436 19.4785C41.5068 21.1133 42.4736 23.3721 42.5439 26.2549V39.3857C42.5439 42.0049 42.8779 44.0879 43.5459 45.6348V46.0566H38.4307ZM30.3359 42.3389C31.8652 42.3389 33.3154 41.9434 34.6865 41.1523C36.0576 40.3613 37.0508 39.333 37.666 38.0674V32.2139H33.8428C27.8662 32.2139 24.8779 33.9629 24.8779 37.4609C24.8779 38.9902 25.3877 40.1855 26.4072 41.0469C27.4268 41.9082 28.7363 42.3389 30.3359 42.3389Z" fill="black"/>
</svg>
